<?xml version="1.0" standalone="no"?>
<!DOCTYPE svg PUBLIC "-//W3C//DTD SVG 20010904//EN"
 "http://www.w3.org/TR/2001/REC-SVG-20010904/DTD/svg10.dtd">
<svg version="1.0" xmlns="http://www.w3.org/2000/svg"
 width="32.000000pt" height="32.000000pt" viewBox="0 0 32.000000 32.000000"
 preserveAspectRatio="xMidYMid meet">

<g transform="translate(0.000000,32.000000) scale(0.100000,-0.100000)"
fill="#000000" stroke="none">
<path d="M64 295 c-3 -8 -15 -17 -25 -20 -18 -6 -19 -15 -17 -133 l3 -127 135
0 135 0 3 127 c2 118 1 127 -17 133 -10 3 -22 12 -25 20 -7 19 -35 19 -42 0
-8 -21 -100 -21 -108 0 -7 19 -35 19 -42 0z m36 -20 c0 -8 -7 -15 -15 -15 -8
0 -15 7 -15 15 0 8 7 15 15 15 8 0 15 -7 15 -15z m150 0 c0 -8 -7 -15 -15 -15
-8 0 -15 7 -15 15 0 8 7 15 15 15 8 0 15 -7 15 -15z m-182 -27 c10 -10 17 -10
32 0 25 16 102 16 118 0 10 -10 17 -10 33 0 25 16 39 8 39 -24 l0 -24 -130 0
-130 0 0 30 c0 32 17 39 38 18z m222 -137 c0 -63 -3 -80 -16 -85 -20 -8 -208
-8 -228 0 -13 5 -16 22 -16 85 l0 79 130 0 130 0 0 -79z"/>
<path d="M173 118 c-19 -18 -24 -19 -38 -8 -20 17 -32 5 -15 -15 18 -22 33
-19 65 15 33 34 21 42 -12 8z"/>
</g>
</svg>
